# xmcd
#
# Track frame offsets:
# 150
# 14863
# 34662
# 48210
# 67028
# 80577
# 106569
# 115220
# 128506
#
# Disc length: 2106 seconds
#
# Revision: 0
# Processed by: cddbd v1.5PL3 Copyright (c) Steve Scherf et al.
# Submitted via: Audion 2.6.0 (http://www.panic.com/audion/)
#
DISCID=6e083809
DTITLE=eddie harris - silver cycles
DYEAR=1900
DGENRE=
TTITLE0=free at last
TTITLE1=1974 blues
TTITLE2=smoke signals
TTITLE3=coltranes view
TTITLE4=im gonna leave you by yurself
TTITLE5=silver cycles
TTITLE6=little bit
TTITLE7=electric ballad
TTITLE8=infrapolations
EXTD=
EXTT0=
EXTT1=
EXTT2=
EXTT3=
EXTT4=
EXTT5=
EXTT6=
EXTT7=
EXTT8=
PLAYORDER=
